<svg t="1780303790333" class="icon" viewBox="0 0 1024 1024" version="1.1" xmlns="http://www.w3.org/2000/svg" p-id="1841" ><path d="M212.101706 1024c-9.464011 0-19.133761-1.851654-28.186293-5.554963A75.300608 75.300608 0 0 1 136.389619 948.287914V75.747268A75.62979 75.62979 0 0 1 266.005419 22.666512l599.935988 612.486089a75.300608 75.300608 0 0 1 15.636192 82.295745 75.15659 75.15659 0 0 1-69.745645 46.291358H491.084284L266.622637 1000.339973c-14.607495 15.430452-34.358474 23.454288-54.520931 23.454288z m1.851654-943.314988v862.665157l222.609993-233.719918c14.196016-14.813234 34.152735-23.454288 54.726671-23.454288H807.099949L213.95336 80.479273z" p-id="1842"></path></svg>