<svg t="1779256847322" class="icon" viewBox="0 0 1024 1024" version="1.1" xmlns="http://www.w3.org/2000/svg" p-id="12778" width="200" height="200"><path d="M441.26208 758.03648l-16.4864 26.78784s-1.18784 9.90208 8.2432 16.61952c9.43104 6.71744 33.11616 27.21792 38.06208 30.75072 4.94592 3.5328 10.25024 9.55392 25.8048 9.02144 15.55456-0.53248 17.67424-7.95648 11.3152-12.91264-6.35904-4.94592-13.78304 0.3584-25.09824-20.50048s-4.47488-24.97536-4.47488-24.97536l-0.02048-0.01024c-0.89088-0.17408-1.85344-0.43008-2.92864-0.80896-7.72096-2.77504-26.54208-17.60256-34.41664-23.97184z" fill="#FCBD87" p-id="12779"></path><path d="M505.02656 644.39296c-6.89152-0.26624-7.75168-6.62528-7.75168-6.62528l-13.44512-0.9216-46.12096 118.28224s1.35168 1.11616 3.55328 2.90816c7.87456 6.36928 26.69568 21.1968 34.41664 23.9616 1.06496 0.37888 2.02752 0.63488 2.92864 0.80896 7.39328 1.47456 9.09312-3.28704 9.09312-3.28704 18.3808-0.3584 14.14144-27.21792 14.14144-27.21792s13.16864-24.96512 29.14304-56.45312c-10.36288-26.61376-18.80064-46.94016-18.80064-46.94016-7.15776 2.37568-7.15776-4.51584-7.15776-4.51584zM441.01632 520.704c9.40032 2.07872 64.78848 14.46912 98.77504 24.79104 24.15616 7.34208 36.1472 29.39904 41.59488 43.99104 18.7392-47.5648-6.01088-60.61056-26.4704-69.08928-19.4048-8.04864-107.43808-7.18848-116.44928-7.07584 0.7168 4.52608 1.15712 7.07584 1.15712 7.07584-7.168 5.64224-18.61632 10.11712-32.16384 13.66016-35.57376 9.3184-85.6064 12.24704-110.6432 13.1584l-2.12992 0.39936s-2.11968 5.35552-3.11296 13.35296c31.85664-4.8128 114.05312-18.87232 149.44256-40.26368z" fill="#2D5E90" p-id="12780"></path><path d="M600.87296 427.776c2.048-4.1984 0.19456-4.2496-3.13344-3.03104 0.08192 0.07168 0.17408 0.14336 0.256 0.21504 1.0752 0.94208 2.01728 1.88416 2.87744 2.816zM582.20544 429.50656c0.11264-3.19488-0.8192-5.61152-0.8192-5.61152s-3.5328 10.9568-12.72832 14.14144c-5.7856 2.00704-32.89088 8.1408-52.16256 12.41088-10.25024 1.32096-21.26848 2.74432-32.23552 4.16768l7.64928 6.76864h24.58624c2.2528-3.328 4.32128-7.29088 6.21568-11.73504 18.49344-2.38592 33.77152-4.36224 40.64256-5.24288 11.50976-1.4848 16.20992-6.02112 17.95072-10.45504-0.74752 2.14016-2.0992 4.52608-4.58752 5.82656 0 0 11.13088-1.24928 18.60608-6.144-1.95584-1.8432-4.01408-3.77856-5.98016-5.44768-2.67264 0.99328-5.26336 1.67936-7.13728 1.32096zM598.70208 403.12832s1.2288 2.24256 4.15744 3.46112l0.64512 0.27648 0.50176 0.06144c1.32096 0.09216 2.8672 1.14688 4.59776 2.68288l0.01024 0.01024c9.32864 0.38912 6.0416-6.06208 6.0416-6.06208-6.76864 0.08192-15.95392-0.43008-15.95392-0.43008z" fill="#FCBD87" p-id="12781"></path><path d="M429.11744 420.62848c9.99424-1.85344 10.50624-5.4784 10.50624-5.4784 15.02208-10.40384 23.53152-33.55648 26.75712-44.12416L439.296 336.93696c-9.41056 18.36032-11.3152 50.98496-10.17856 83.69152z" fill="#F9DA58" p-id="12782"></path><path d="M439.62368 415.13984l6.66624 5.89824 84.76672 2.03776c11.8272-50.08384 12.67712-120.05376 12.67712-120.05376 13.6192-14.4896 11.85792-29.0816 9.71776-36.2496-0.75776 9.10336-3.6864 18.55488-9.728 22.76352-1.536 1.06496-3.91168 2.22208-7.00416 2.22208-1.00352 0-2.0992-0.14336-3.25632-0.43008-0.58368 2.24256-2.60096 3.90144-5.0176 3.90144h0.57344v2.9184h-12.43136c7.96672 21.66784-19.51744 111.49312-19.51744 111.49312l-30.68928-38.61504c-3.2256 10.55744-11.7248 33.72032-26.75712 44.11392z" fill="#FCBD87" p-id="12783"></path><path d="M538.89024 282.56256c2.08896-1.45408 3.9424-5.31456 5.10976-10.02496-1.31072 3.28704-3.62496 6.95296-3.62496 6.95296s-2.11968 0.53248-3.77856-1.9968l-2.93888 2.97984v1.92512c3.14368 1.59744 4.64896 0.57344 5.23264 0.16384z" fill="#FCBD87" p-id="12784"></path><path d="M399.53408 276.60288c7.54688 16.71168 17.42848 30.11584 25.76384 39.58784 1.20832 1.08544 2.44736 2.10944 3.72736 3.072l1.06496-11.78624 1.65888-18.37056c-17.08032-20.8384-23.15264-45.08672-25.28256-58.33728l-14.91968 23.0912c0.06144 0.24576 0.13312 0.49152 0.2048 0.73728 0.70656 2.53952 3.26656 11.34592 7.7824 22.00576z" fill="#FDCCA4" p-id="12785"></path><path d="M434.0736 263.39328c-10.46528-7.56736-21.22752-19.33312-26.08128-34.99008l-1.52576 2.3552c2.12992 13.25056 8.20224 37.49888 25.28256 58.33728l2.32448-25.7024z" fill="#FCBD87" p-id="12786"></path><path d="M426.9056 195.8912s7.59808-6.18496 10.51648-20.76672c0 0-0.53248 25.45664 25.1904 27.04384 0 0-3.18464-9.27744 3.45088-13.5168 0 0 1.85344 9.984 16.70144 12.55424 35.00032 9.90208 39.58784-28.63104 39.58784-28.63104-19.44576 3.18464-18.3808-7.0656-18.3808-7.0656 8.13056-1.41312 7.77216-13.43488 7.77216-13.43488-28.63104 12.36992-20.85888-12.72832-48.0768-20.15232s-36.7616 13.43488-36.7616 13.43488c-4.59776-4.94592 1.77152-18.03264 1.77152-18.03264-9.54368 3.18464-8.13056 18.7392-8.13056 18.7392-38.53312-8.83712-20.50048 42.42432-20.50048 42.42432l0.04096 0.01024c4.7616-11.58144 28.09856-14.7456 26.81856 7.39328zM434.0736 263.39328c7.26016 5.24288 14.36672 8.46848 19.2512 9.55392 11.9296 2.65216 18.82112-5.8368 18.03264-14.58176-0.79872-8.74496 2.38592-29.96224 2.38592-29.96224l-1.85344-0.75776c-5.71392-0.9216-12.7488 10.04544-27.31008 10.04544-16.16896 0-29.96224-29.96224-29.96224-29.96224s-11.38688-0.94208-14.58176-9.70752c-5.82656 12.83072-21.47328 19.2512-21.47328 19.2512 10.60864 0 15.90272-3.97312 15.90272-3.97312-1.06496 2.11968-9.80992 9.80992-9.80992 9.80992 2.11968 10.3424 18.55488 11.13088 18.55488 11.13088l4.77184-5.8368c4.864 15.65696 15.62624 27.43296 26.09152 34.99008z" fill="#282F39" p-id="12787"></path><path d="M414.6176 207.72864s13.78304 29.96224 29.96224 29.96224c14.56128 0 21.6064-10.9568 27.31008-10.04544 0.63488 0.1024 1.24928 0.33792 1.85344 0.75776 6.0928 4.23936 10.3424 2.11968 10.3424 2.11968 1.85344-11.9296-1.32096-29.3376-1.32096-29.3376-14.848-2.56-16.70144-12.55424-16.70144-12.55424-6.62528 4.23936-3.45088 13.5168-3.45088 13.5168-25.71264-1.5872-25.1904-27.04384-25.1904-27.04384-2.9184 14.58176-10.51648 20.76672-10.51648 20.76672 1.29024-22.13888-22.05696-18.97472-26.8288-7.41376-0.47104 1.1264-0.768 2.33472-0.83968 3.61472-0.12288 2.304 0.18432 4.25984 0.79872 5.9392 3.19488 8.78592 14.58176 9.71776 14.58176 9.71776z m-0.63488-20.9408c3.74784 0 6.77888 3.03104 6.77888 6.77888s-3.03104 6.77888-6.77888 6.77888-6.77888-3.03104-6.77888-6.77888 3.04128-6.77888 6.77888-6.77888z" fill="#FDCCA4" p-id="12788"></path><path d="M413.98272 193.56672m-6.77888 0a6.77888 6.77888 0 1 0 13.55776 0 6.77888 6.77888 0 1 0-13.55776 0Z" fill="#FCBD87" p-id="12789"></path><path d="M431.88224 461.38368z" fill="#FB5B57" p-id="12790"></path><path d="M314.49088 336.93696s15.90272 51.36384 27.92448 72.69376l6.71744-6.76864s22.99904-15.80032 45.04576-19.44576c2.18112-0.3584 4.352-0.60416 6.49216-0.70656l17.39776 37.65248 11.0592 0.26624c-1.13664-32.70656 0.768-65.3312 10.17856-83.69152 0.8192-1.60768 1.69984-3.11296 2.64192-4.48512 0 0-7.35232-5.70368-16.64-16.26112-8.33536-9.472-18.21696-22.87616-25.76384-39.58784-3.072-6.79936-5.75488-14.14144-7.7824-21.99552-0.06144-0.24576-0.13312-0.49152-0.2048-0.73728 0 0-5.57056-8.22272-11.39712 2.65216-5.8368 10.87488-120.10496 20.6848-98.88768 291.11296 0 0 5.9392-0.0512 15.5648-0.39936 25.04704-0.91136 75.07968-3.84 110.6432-13.1584-91.62752-79.12448-92.98944-197.14048-92.98944-197.14048z m74.41408-74.45504c2.11968 20.54144 26.24512 56.7808 26.24512 56.7808-17.23392-14.40768-28.89728-52.14208-28.89728-52.14208-0.53248-6.62528 2.65216-4.63872 2.65216-4.63872z m-2.7136 12.53376s4.62848 18.35008 9.63584 25.77408c0 0-10.89536-14.96064-13.01504-25.77408-2.12992-10.81344 3.3792 0 3.3792 0z" fill="#FFE772" p-id="12791"></path><path d="M425.41056 462.21312c-7.45472-0.48128-15.54432-1.36192-21.48352-2.9696-9.12384-2.46784-19.6608-9.64608-26.14272-14.56128l-20.24448-29.5424c-4.88448-7.12704-8.40704-12.27776-8.40704-12.27776l-6.71744 6.76864c-12.02176-21.32992-27.92448-72.69376-27.92448-72.69376s1.36192 118.02624 92.9792 197.13024c13.53728-3.55328 24.99584-8.01792 32.16384-13.66016 0 0-0.45056-2.54976-1.15712-7.07584-1.55648-9.89184-4.39296-29.22496-6.58432-51.94752-2.27328 0.28672-4.44416 0.57344-6.48192 0.82944z" fill="#F9DA58" p-id="12792"></path><path d="M394.17856 383.41632c-22.04672 3.64544-45.04576 19.44576-45.04576 19.44576s3.52256 5.15072 8.40704 12.27776c10.73152-15.33952 26.44992-25.9584 36.63872-31.72352z" fill="#FCBD87" p-id="12793"></path><path d="M429.11744 420.62848l-11.0592-0.26624-17.39776-37.65248c-2.14016 0.09216-4.31104 0.33792-6.49216 0.70656-10.1888 5.76512-25.9072 16.384-36.63872 31.72352l20.24448 29.5424c6.48192 4.9152 17.01888 12.09344 26.14272 14.56128 5.9392 1.60768 14.0288 2.48832 21.48352 2.9696 2.048-0.26624 4.20864-0.54272 6.48192-0.83968 14.592-1.88416 33.42336-4.32128 52.3776-6.76864 10.96704-1.41312 21.98528-2.83648 32.23552-4.16768 19.27168-4.27008 46.37696-10.40384 52.16256-12.41088 9.19552-3.18464 12.72832-14.14144 12.72832-14.14144 1.95584-0.27648 4.85376 1.64864 7.96672 4.28032 1.96608 1.65888 4.01408 3.60448 5.98016 5.44768 2.78528 2.62144 5.38624 5.04832 7.2704 6.17472 5.30432 3.18464 8.13056-2.47808 8.13056-2.47808-3.77856-1.45408-5.888-5.29408-9.85088-9.55392-0.86016-0.9216-1.80224-1.87392-2.87744-2.816-0.08192-0.07168-0.17408-0.14336-0.256-0.21504-5.87776-5.12-10.35264-6.5024-10.35264-6.5024l12.72832-3.8912s13.43488 8.83712 18.3808 11.3152 7.77216-2.11968 7.77216-2.11968c-6.73792-1.81248-12.91264-9.70752-17.67424-13.93664-1.73056-1.536-3.2768-2.59072-4.59776-2.68288-0.17408-0.01024-0.33792-0.04096-0.50176-0.06144-4.4544-0.54272-4.80256-3.7376-4.80256-3.7376s9.18528 0.512 15.94368 0.41984c2.52928-0.03072 4.72064-0.1536 5.96992-0.41984 4.59776-0.9728 5.65248-3.87072 5.65248-3.87072l-30.75072-3.28704-44.89216 27.57632-19.56864-0.47104-84.76672-2.03776-17.17248-0.38912z" fill="#FDCCA4" p-id="12794"></path><path d="M429.02528 319.26272l12.91264 13.18912-11.84768-24.97536zM415.15008 319.26272s-24.12544-36.23936-26.24512-56.7808c0 0-3.18464-1.98656-2.65216 4.63872 0 0 11.66336 37.7344 28.89728 52.14208zM395.8272 300.78976c-5.00736-7.424-9.63584-25.77408-9.63584-25.77408s-5.50912-10.81344-3.38944 0 13.02528 25.77408 13.02528 25.77408z" fill="#F9DA58" p-id="12795"></path><path d="M533.6576 237.33248c-0.03072 0-0.06144 0-0.09216 0.01024h0.09216v-0.01024zM533.47328 291.31776c-2.46784-0.6144-5.25312-1.95584-8.33536-4.48512a4.231168 4.231168 0 0 1-0.58368-5.96992 4.231168 4.231168 0 0 1 5.96992-0.58368c1.19808 0.98304 2.23232 1.65888 3.14368 2.11968v-6.05184c-3.45088-0.22528-9.07264 1.00352-13.96736 1.3824-6.89152 0.53248-5.49888-6.62528 0-6.61504 2.8672 0.01024 8.67328-1.32096 13.96736-2.38592v-1.80224c-4.32128-0.74752-13.6704 3.04128-18.20672 4.08576-4.59776 1.06496-11.13088-6.35904-4.59776-6.18496 4.25984 0.11264 14.97088-3.44064 22.80448-5.9392v-2.90816c-3.90144 0.98304-8.97024 2.5088-13.5168 4.78208-7.95648 3.97312-18.55488-3.18464-10.87488-4.77184 7.69024-1.5872 7.95648-5.8368 20.15232-9.0112 1.6384-0.43008 3.04128-0.6656 4.23936-0.768v-0.37888c-3.29728-0.09216-6.12352 0.65536-6.36928 0.7168-2.2528 0.6144-4.58752-0.70656-5.21216-2.95936a4.22912 4.22912 0 0 1 2.93888-5.21216c1.72032-0.48128 3.87072-0.86016 6.21568-0.99328-4.97664-0.13312-12.60544-1.47456-15.34976-3.14368h-27.55584v55.76704c0 2.87744 2.33472 5.21216 5.21216 5.21216H528.46592c2.4064 0 4.42368-1.65888 5.00736-3.90144z" fill="#6696C0" p-id="12796"></path><path d="M529.01888 295.2192h-34.60096v2.9184h34.60096z" fill="#3B6897" p-id="12797"></path><path d="M533.6576 237.34272h-0.09216c-0.6656 0.0512-1.45408 0.07168-2.32448 0.04096-2.34496 0.13312-4.49536 0.512-6.21568 0.99328a4.22912 4.22912 0 0 0-2.93888 5.21216 4.2496 4.2496 0 0 0 5.21216 2.95936c0.24576-0.07168 3.072-0.80896 6.36928-0.7168 3.9424 0.1024 8.56064 1.39264 10.31168 6.44096 1.5872 4.608 1.6896 10.65984 0.83968 16.19968 0.23552 0.94208-0.16384 2.4576-0.80896 4.06528-1.1776 4.72064-3.0208 8.57088-5.10976 10.02496-0.58368 0.39936-2.08896 1.4336-5.2224-0.17408-0.91136-0.4608-1.9456-1.13664-3.14368-2.11968a4.2496 4.2496 0 0 0-5.96992 0.58368 4.2496 4.2496 0 0 0 0.58368 5.96992c3.08224 2.52928 5.86752 3.87072 8.33536 4.48512 1.15712 0.28672 2.24256 0.43008 3.25632 0.43008 3.10272 0 5.4784-1.15712 7.00416-2.22208 6.03136-4.1984 8.97024-13.64992 9.728-22.76352 0.55296-6.67648-0.0512-13.1584-1.47456-17.26464-1.26976-3.67616-3.31776-6.32832-5.77536-8.192-6.87104-0.43008-7.59808-3.06176-10.27072-3.80928-0.77824-0.07168-1.536-0.12288-2.29376-0.14336z" fill="#6C9CC6" p-id="12798"></path><path d="M540.81536 250.88s0.59392-5.31456-7.15776-4.67968c-1.20832 0.1024-2.60096 0.33792-4.23936 0.768-12.19584 3.18464-12.46208 7.424-20.15232 9.0112-7.69024 1.5872 2.9184 8.74496 10.87488 4.77184 4.54656-2.27328 9.61536-3.79904 13.5168-4.78208 2.9184-0.73728 5.19168-1.16736 6.0928-1.37216 2.12992-0.47104 1.06496-3.71712 1.06496-3.71712z" fill="#FDCCA4" p-id="12799"></path><path d="M543.73376 263.936s1.77152-7.424-1.41312-7.424c-1.10592 0-4.47488 1.03424-8.66304 2.36544-7.8336 2.49856-18.54464 6.05184-22.80448 5.9392-6.54336-0.17408 0 7.24992 4.59776 6.18496 4.53632-1.04448 13.88544-4.84352 18.20672-4.08576 0.06144 0.01024 0.12288 0.01024 0.17408 0.02048 4.2496 0.89088 9.49248-0.50176 9.90208-3.00032zM536.59648 277.49376c1.65888 2.52928 3.77856 1.9968 3.77856 1.9968s2.31424-3.67616 3.62496-6.95296c0.64512-1.61792 1.04448-3.1232 0.80896-4.06528-0.09216-0.36864-0.27648-0.65536-0.58368-0.8192-1.30048-0.67584-5.71392 0.09216-10.56768 1.0752-5.28384 1.0752-11.10016 2.39616-13.96736 2.38592-5.49888-0.01024-6.89152 7.14752 0 6.61504 4.89472-0.37888 10.51648-1.60768 13.96736-1.3824 1.41312 0.08192 2.46784 0.4096 2.93888 1.14688zM533.56544 237.34272c0.03072 0 0.06144 0 0.09216-0.01024 0.93184-0.08192 1.65888-0.01024 2.28352 0.16384 2.6624 0.74752 3.38944 3.36896 10.27072 3.80928 0 0-3.54304-9.35936-7.07584-11.30496-3.5328-1.9456-6.33856 0.88064-12.97408 1.41312-6.64576 0.53248-12.77952-0.17408-11.12064 2.11968 0.17408 0.23552 0.4608 0.48128 0.84992 0.70656 2.74432 1.66912 10.38336 3.01056 15.34976 3.14368 0.86016 0.03072 1.65888 0.01024 2.32448-0.04096z" fill="#FDCCA4" p-id="12800"></path><path d="M628.10112 844.11392c-4.12672 3.08224-9.54368 6.51264-15.88224 9.10336-5.5296 2.2528-11.75552 3.88096-18.46272 4.07552 0 0 1.62816 2.0992 1.95584 11.25376 12.68736-3.25632 24.65792-15.1552 32.38912-24.43264z" fill="#FCBD87" p-id="12801"></path><path d="M700.42624 884.60288c-60.71296-2.38592-68.66944-43.38688-68.66944-43.38688-1.06496 0.90112-2.29376 1.88416-3.65568 2.89792-7.7312 9.27744-19.70176 21.17632-32.37888 24.43264 0.07168 2.11968 0.08192 4.62848-0.02048 7.56736-0.53248 15.64672 10.87488 21.47328 10.87488 21.47328h99.6864c8.21248-12.98432-5.8368-12.98432-5.8368-12.98432z" fill="#FDCCA4" p-id="12802"></path><path d="M514.57024 615.13728s17.92 6.35904 25.22112 32.52224c6.21568 22.272 57.35424 163.92192 72.42752 205.55776 6.3488-2.59072 11.75552-6.02112 15.88224-9.10336 1.36192-1.024 2.59072-1.9968 3.65568-2.89792 3.28704-2.77504 5.12-4.78208 5.12-4.78208l-51.51744-233.30816s-1.03424-5.72416-3.98336-13.62944c-5.44768-14.60224-17.43872-36.6592-41.59488-43.99104-33.98656-10.32192-89.37472-22.71232-98.77504-24.79104-35.38944 21.39136-117.58592 35.45088-149.44256 40.26368-1.2288 9.92256-0.70656 23.92064 7.79264 36.84352l215.21408 17.31584z" fill="#74AADF" p-id="12803"></path><path d="M539.79136 647.65952c-7.30112-26.1632-25.22112-32.52224-25.22112-32.52224L299.3664 597.8112c8.3456 12.67712 24.38144 24.32 54.00576 30.04416l130.4576 8.97024 13.44512 0.9216s0.86016 6.35904 7.75168 6.62528c0 0 0 6.89152 7.15776 4.5056 0 0 8.448 20.33664 18.80064 46.94016 17.01888 43.70432 39.20896 104.35584 37.66272 119.73632 0 0-1.77152 13.78304 8.48896 13.07648 0 0-8.13056 29.3376 16.61952 28.63104 6.69696-0.19456 12.93312-1.81248 18.46272-4.07552-15.07328-41.60512-66.21184-183.25504-72.42752-205.52704z" fill="#568EC2" p-id="12804"></path><path d="M448.64512 202.81344a6.31808 4.49536 90 1 0 8.99072 0 6.31808 4.49536 90 1 0-8.99072 0Z" fill="#282F39" p-id="12805"></path><path d="M410.99264 991.62112H357.61152l-32.88064-10.60864H267.4688v15.90272h43.30496v-6.54336s5.30432-0.41984 9.46176 0.03072c14.2336 1.0752 22.1696 6.5024 22.1696 6.5024h68.57728c3.90144-2.80576 0.01024-5.28384 0.01024-5.28384z" fill="#73A9DE" p-id="12806"></path><path d="M357.61152 991.62112h50.72896s2.65216-10.51648-9.27744-13.43488c-11.9296-2.9184-28.63104-3.18464-52.23424-29.696l-58.32704 32.52224h36.22912l32.88064 10.60864z" fill="#1D4F81" p-id="12807"></path><path d="M310.77376 990.38208v6.54336h9.46176v-6.5024c-4.1472-0.4608-9.46176-0.04096-9.46176-0.04096z" fill="#246294" p-id="12808"></path><path d="M501.84192 991.62112H448.4608l-32.88064-10.60864h-57.26208v15.90272h43.30496v-6.54336s5.30432-0.41984 9.46176 0.03072c14.2336 1.0752 22.1696 6.5024 22.1696 6.5024h68.57728c3.90144-2.80576 0.01024-5.28384 0.01024-5.28384z" fill="#73A9DE" p-id="12809"></path><path d="M448.4608 991.62112h50.72896s2.65216-10.51648-9.27744-13.43488c-11.9296-2.9184-28.63104-3.18464-52.23424-29.696l-58.32704 32.52224h36.22912l32.88064 10.60864z" fill="#205F93" p-id="12810"></path><path d="M401.62304 990.38208v6.54336h9.46176v-6.5024c-4.1472-0.4608-9.46176-0.04096-9.46176-0.04096z" fill="#246294" p-id="12811"></path><path d="M509.62432 838.912h-51.68128l0.13312 17.41824h51.54816z" fill="#AA523F" p-id="12812"></path><path d="M474.27584 649.43104V631.3984h-17.82784l0.13312 18.03264zM357.61152 649.07264c-1.95584-0.08192-3.7888 0.06144-5.5296 0.3584h44.05248c-1.82272-0.24576-3.67616-0.36864-5.53984-0.36864l-32.98304 0.01024zM272.24064 631.3984v18.03264h17.75616l7.02464-18.03264z" fill="#CF815A" p-id="12813"></path><path d="M435.31264 491.42784l-193.82272-9.02144v19.41504l216.4224 11.24352c-1.16736-6.59456-5.95968-15.93344-22.59968-21.63712z" fill="#F3A970" p-id="12814"></path><path d="M457.8304 520.704s0.86016-3.20512 0.08192-7.64928l-216.4224-11.24352v18.88256H457.8304z" fill="#E99C64" p-id="12815"></path><path d="M435.38432 520.704H348.2624c-3.4816 0-6.7072 1.51552-8.91904 4.02432l108.63616 2.82624c-3.00032-2.79552-7.07584-5.36576-12.5952-6.85056z" fill="#AA523F" p-id="12816"></path><path d="M456.58112 649.43104l-0.13312-18.03264-0.65536-91.20768s-1.57696-6.8096-7.81312-12.63616l-108.63616-2.82624c-0.91136 1.03424-1.65888 2.23232-2.18112 3.56352l-40.1408 103.09632-7.0144 18.03264-14.61248 37.5296h45.30176l10.76224-22.33344s6.71744-12.8512 20.6336-15.19616c1.73056-0.29696 3.57376-0.43008 5.5296-0.3584l32.98304-0.02048c1.85344 0 3.70688 0.12288 5.53984 0.36864 7.9872 1.0752 15.53408 4.49536 21.4016 10.09664 3.33824 3.18464 6.15424 7.03488 7.18848 11.4688l0.95232 15.96416h31.16032l-0.26624-37.50912z m-112.75264-5.8368h-19.26144v-9.90208h19.26144v9.90208z m88.19712 0h-19.26144v-9.90208h19.26144v9.90208z m2.304-38.0928c0 10.79296-8.74496 19.53792-19.53792 19.53792h-55.3984c-16.44544 0-27.97568-16.19968-22.59968-31.744l12.81024-37.02784a19.247104 19.247104 0 0 1 18.18624-12.9536h44.83072c11.99104 0 21.7088 9.71776 21.7088 21.7088v40.47872z" fill="#CD7946" p-id="12817"></path><path d="M154.70592 996.92544h16.54784l149.43232-309.9648h-45.30176zM456.84736 686.96064h-31.16032l18.57536 309.9648h14.82752l-1.01376-140.5952-0.13312-17.41824zM324.56704 633.7024h19.26144v9.90208h-19.26144zM412.76416 633.7024h19.26144v9.90208h-19.26144z" fill="#F3A970" p-id="12818"></path><path d="M481.34144 461.38368H840.4992v30.03392H481.34144z" fill="#A14A3C" p-id="12819"></path><path d="M650.31168 461.38368H530.13504c-2.2528 0-4.07552-1.82272-4.07552-4.07552s1.82272-4.07552 4.07552-4.07552h120.17664v8.15104z" fill="#133967" p-id="12820"></path><path d="M776.3456 333.4144l0.17408-0.45056h-1.03424c-0.98304-0.36864-2.00704-0.32768-2.9184 0H698.4704l-47.96416 127.91808 77.23008 1.3312 0.07168-0.19456c0.39936 0.12288 0.79872 0.19456 1.20832 0.19456 1.72032 0 3.33824-1.05472 3.97312-2.77504l44.98432-120.96512c0.69632-1.8944-0.02048-3.97312-1.62816-5.05856z" fill="#6B9BC5" p-id="12821"></path><path d="M651.99104 461.1584a4.232192 4.232192 0 0 1-3.96288-5.72416l44.98432-119.98208c0.8192-2.19136 3.26656-3.30752 5.45792-2.47808 2.19136 0.8192 3.30752 3.26656 2.47808 5.45792l-44.98432 119.98208a4.258816 4.258816 0 0 1-3.97312 2.74432z" fill="#133967" p-id="12822"></path><path d="M823.17312 491.4176H717.12768v5.94944l106.04544 6.17472z" fill="#DA8B56" p-id="12823"></path><path d="M717.12768 497.36704v470.44608h106.04544V503.54176z" fill="#F0A66D" p-id="12824"></path><path d="M823.17312 967.81312h-90.14272v11.70432l90.14272 5.65248z" fill="#DA8B56" p-id="12825"></path><path d="M733.0304 979.51744v18.82112h90.14272v-13.16864zM717.12768 897.5872h-83.07712v5.14048c12.15488 1.47456 66.56 5.24288 83.07712 6.37952v-11.52z" fill="#F0A66D" p-id="12826"></path><path d="M634.05056 902.72768v14.30528h83.07712v-7.92576c-16.51712-1.1264-70.92224-4.90496-83.07712-6.37952z" fill="#DA8B56" p-id="12827"></path><path d="M651.80672 117.05344h-28.14976l-3.24608 10.25024h31.97952z" fill="#C1DEF5" p-id="12828"></path><path d="M651.80672 117.05344l0.58368 10.25024h29.85984l-3.1744-10.25024h-21.54496z" fill="#A1CCEB" p-id="12829"></path><path d="M620.41088 127.30368l-18.88256 59.48416h54.24128l-3.3792-59.48416z" fill="#DDEEFB" p-id="12830"></path><path d="M682.25024 127.30368H652.3904l3.3792 59.48416h44.92288z" fill="#BADCF0" p-id="12831"></path><path d="M657.53088 117.05344l-5.20192-42.41408h-12.61568l-31.81568 42.41408H651.80672z" fill="#6B9BC5" p-id="12832"></path><path d="M652.32896 74.63936l5.20192 42.41408h36.25984l-33.93536-42.41408h-6.99392z" fill="#457FAC" p-id="12833"></path><path d="M652.86144 49.7152v24.92416h6.99392V47.94368c0-5.56032-4.5056-10.07616-10.07616-10.07616-2.16064 0-4.15744 0.68608-5.79584 1.8432 4.99712 0.59392 8.87808 4.84352 8.87808 10.00448z" fill="#DDEEFB" p-id="12834"></path><path d="M652.86144 74.63936V49.7152c0-5.16096-3.88096-9.40032-8.87808-9.99424-2.58048 1.82272-4.28032 4.82304-4.28032 8.23296v26.68544h13.1584z" fill="#FFFFFF" p-id="12835"></path><path d="M648.192 0.28672h3.18464v37.5808H648.192zM548.48512 79.69792c-1.62816 0-3.2768-0.1024-4.93568-0.29696-20.55168-2.4576-36.89472-16.95744-47.27808-41.92256-7.76192-18.65728-9.46176-36.3008-9.5232-37.03808l3.16416-0.29696c0.06144 0.70656 7.08608 70.48192 54.016 76.09344C590.6432 81.8176 606.17728 0.8192 606.33088 0l3.13344 0.57344c-0.04096 0.21504-4.00384 21.28896-13.9264 41.3696-12.26752 24.81152-28.45696 37.75488-47.0528 37.75488z" fill="#6B9BC5" p-id="12836"></path></svg>